<?xml version="1.0" encoding="utf-8"?>
<!-- Generator: Adobe Illustrator 22.0.1, SVG Export Plug-In . SVG Version: 6.00 Build 0)  -->
<svg version="1.1" id="Layer_1" xmlns="http://www.w3.org/2000/svg" xmlns:xlink="http://www.w3.org/1999/xlink" x="0px" y="0px"
	 viewBox="0 0 199.5 169.5" style="enable-background:new 0 0 199.5 169.5;" xml:space="preserve">
<style type="text/css">
	.st0{fill:#4C4E4F;}
</style>
<title>honeycomb</title>
<path class="st0" d="M189.5,0H200v1.5h-8.4l-7.3,12.7c2.5,4.6,5,9.1,7.8,13.3h7.9v2h-8.3l-1.3,2.2c-1.7,3-3.4,6.1-5.4,9
	c-0.8,0.9-0.9,2.3-0.2,3.3c0.7,1,1.3,2.1,1.9,3.2c1.7,2.8,3.3,5.5,5,8.4h8.1V58h-8.3c-2.5,4.3-4.9,8.5-7.4,12.7
	c2.5,4.6,5,9.1,7.8,13.3h7.9v2h-8.3c-0.5,0.8-0.8,1.5-1.3,2.2c-1.9,3-3.3,6.1-5.4,9c-0.8,0.9-0.9,2.3-0.2,3.3c0.7,1,1.3,2.1,1.9,3.2
	c1.7,2.8,3.3,5.6,5,8.4h8.1v2.5h-8.4l-7.3,12.8c2.5,4.6,5,9,7.7,13.3h8v2h-8.3c-0.5,0.8-0.8,1.5-1.3,2.2c-1.9,3-3.3,6.1-5.4,9
	c-0.8,0.9-0.9,2.3-0.2,3.3c0.7,1,1.3,2.1,1.9,3.2c1.7,2.8,3.3,5.6,5,8.4h8.1v0.8c0,0.1,0,0.2,0,0.2h-10.5c-1.1-2-2.2-4.1-3.4-6.1
	c-1.3-2.3-2.6-4.6-4-6.8H167l-7.5,12.9h-20c-1.1-2-2.2-4.1-3.4-6.1c-1.3-2.3-2.6-4.6-4-6.8H117l-7.5,12.9h-20
	c-1.1-2-2.2-4.1-3.4-6.1c-1.3-2.3-2.7-4.6-4-6.8H67l-7.5,12.9h-20c-1.1-2-2.2-4.1-3.4-6.1c-1.3-2.3-2.7-4.6-4-6.8H17l-7.5,12.9H0v-1
	h7.9c0.2-0.4,0.3-0.7,0.4-1c1.3-2.3,2.4-4.7,3.9-6.8c0.8-1.2,1.2-2.6,2.1-3.6c0.7-0.6,0.9-1.5,0.5-2.3c-2.4-4.1-4.7-8.2-7.1-12.3H0
	v-2h7.8c2.2-4.8,5.4-8.8,7.3-13.3l-7.3-12.7H0V112h7.7l7.4-12.8C13,94.7,10.1,90.5,7.7,86H0v-2h7.7c1-1.7,1.9-3.1,2.7-4.6
	c1.3-2.3,2.5-4.7,3.9-6.8c0.5-0.8,0.9-1.5,0.7-2L7.8,58H0v-2.5h7.6c0.9-1.2,1.7-2.5,2.4-3.8c1.2-2.7,2.9-5.1,4.3-7.7
	c0.5-0.8,0.9-1.5,0.5-2.3L7.7,29.5H0v-2h7.8c2.3-4.7,5.3-8.9,7.3-13.3L7.8,1.5H0V0h9.5c0,0.3-0.1,0.6,0,0.7c1.3,1.7,2.4,3.5,3.4,5.4
	c0.8,1.4,1.5,2.9,2.3,4.3c0.6,1.1,1.4,2.1,2,3h14.9c2.4-4.1,4.8-8.3,7.3-12.5c0.1-0.3,0.2-0.6,0.2-0.9h20c2.5,4.5,5,9.1,7.5,13.4
	h15.1c2.4-4.2,4.8-8.3,7.2-12.5c0.1-0.3,0.2-0.6,0.2-0.9h20c0,0.3-0.1,0.6,0,0.7c1.3,1.7,2.4,3.5,3.3,5.4c0.8,1.4,1.5,2.9,2.3,4.3
	c0.6,1.1,1.4,2.1,2,3H132c2.4-4.2,4.9-8.3,7.3-12.5c0.1-0.3,0.2-0.6,0.2-0.9h20c2.5,4.5,5,9.1,7.4,13.4H182
	c2.4-4.2,4.9-8.3,7.3-12.5C189.4,0.6,189.5,0.3,189.5,0z M107.9,1.6H91.5l-7.2,12.6c2.5,4.6,5,9.1,7.7,13.2h15.8
	c2.4-4.6,5.2-8.8,7.3-13.2L107.9,1.6z M107.8,168.4c0.2-0.3,0.3-0.7,0.5-1c1.2-2.2,2.5-4.5,3.8-6.6c0.6-1.3,1.4-2.6,2.3-3.8
	c0.5-0.5,0.7-1.2,0.6-1.8l-7.3-12.6h-16c-0.4,0.8-0.8,1.4-1.2,2.1c-1.8,3-3.3,6.1-5.4,9c-0.8,0.9-0.9,2.3-0.2,3.3
	c1.3,1.9,2.5,4,3.7,6c1.1,1.8,2.1,3.6,3.2,5.5L107.8,168.4z M84.3,70.7c2.3,4.5,4.9,8.9,7.7,13.2h15.6c2.4-4.2,4.8-8.2,7.3-12.6
	c0-0.7-0.2-1.3-0.6-1.8c-0.9-1.1-1.2-2.7-2-3.9c-1.8-2.4-2.9-5.2-4.6-7.6H91.6L84.3,70.7z M107.8,140.5c2.2-4.7,5.4-8.8,7.3-13.3
	l-7.3-12.7H91.6l-7.4,12.8c1.4,2.3,2.8,4.4,4,6.7s2.3,4.6,3.9,6.4L107.8,140.5z M165.1,42.6l-7.4-13h-16.1c-0.8,1.5-1.6,3-2.4,4.5
	c-1.4,2.3-2.8,4.7-4.2,7c-0.4,0.6-0.5,1.2-0.5,1.9l7.3,12.6h16L165.1,42.6z M157.7,140.5c1.3-2.4,2.4-4.4,3.6-6.5
	c0.3-0.5,0.6-0.9,0.9-1.4c1.2-1.7,2.2-3.5,2.9-5.4l-7.3-12.6h-16.1c-2.4,4.2-4.9,8.4-7.4,12.8c2.5,4.6,5,9.1,7.8,13.2L157.7,140.5z
	 M57.9,1.6H41.6l-7.3,12.7c2.6,4.5,4.9,9.1,7.7,13.1h15.8c2.1-4.7,5.3-8.7,7.2-13.2C62.6,9.9,60.3,5.8,57.9,1.6z M165.1,14.3
	l-7.3-12.7h-16.2l-7.4,12.8c2.7,4.5,4.9,9.1,7.8,13.1h15.5c1-1.5,2-3.1,2.8-4.7c0.8-1.6,1.8-3.1,2.7-4.6
	C163.8,16.8,164.5,15.5,165.1,14.3z M57.8,140.5c2.1-4.7,5.3-8.8,7.3-13.3l-7.3-12.7H41.7l-7.4,12.7c2.4,4.5,4.9,9,7.8,13.2H57.8z
	 M41.7,58l-7.4,12.8C37,75.3,39.1,80,42.1,84h15.7c2.1-4.7,5.4-8.8,7.3-13.2L57.8,58H41.7z M134.3,70.7c2.7,4.6,4.9,9.3,7.8,13.3
	h15.7c2.1-4.7,5.3-8.8,7.3-13.2L157.8,58h-16.1L134.3,70.7z M91.8,86c-0.5,0.9-1,1.7-1.5,2.5c-1.7,2.9-3.1,5.9-5.1,8.6
	c-0.8,1-0.9,2.4-0.2,3.5c0.6,1,1.2,2,1.8,3c1.7,2.8,3.4,5.6,5,8.3h15.9l7.4-12.8c-2.4-4.3-4.9-8.6-7.4-13L91.8,86z M57.7,29.5H41.6
	c-0.8,1.5-1.5,3-2.3,4.4c-1.4,2.4-2.8,4.8-4.3,7.2c-0.3,0.5-0.5,1.2-0.5,1.8l7.3,12.6h15.9l7.4-12.8C63,38.3,60.2,34.1,57.7,29.5
	L57.7,29.5z M41.7,111.9h16L65.1,99c-2.5-4.4-4.9-8.7-7.4-13h-16c-0.5,0.8-1,1.6-1.5,2.4c-1.5,3-3.2,5.8-5.1,8.6
	c-0.8,1-0.9,2.4-0.2,3.5c1.3,2,2.5,3.9,3.8,5.9C39.8,108.2,40.7,110,41.7,111.9L41.7,111.9z M157.6,111.9c1.4-2.3,2.6-4.4,3.8-6.4
	s2.4-4.3,3.6-6.6c-2.5-4.3-4.9-8.6-7.3-12.9h-16.1l-1.3,2.3c-1.7,3-3.3,6-5.3,8.8c-0.6,0.9-1.1,2-0.2,3.3c0.7,1,1.3,2.1,1.9,3.2
	l5.1,8.4L157.6,111.9z M107.7,55.5l7.3-12.6c0-0.2,0.2-0.8,0-1c-1.2-1.7-2.3-3.5-3.3-5.4l-4-6.9h-16c-0.5,0.9-1.1,1.6-1.5,2.5
	c-1.5,3-3.2,5.8-5.1,8.6c-0.8,1-0.9,2.4-0.1,3.5c0.6,1,1.2,2,1.8,3c1.7,2.8,3.4,5.6,5.1,8.4L107.7,55.5z M57.6,168.5l7.4-12.8
	c-2-4.5-5-8.6-7.3-13.2h-16l-7.3,12.6c0.1,0.7,0.3,1.3,0.6,1.9c0.6,0.9,1.2,1.8,1.7,2.8c1.7,2.9,3.5,5.7,5.2,8.6H57.6z M134.5,155.1
	c-0.1,0.6,0.1,1.2,0.5,1.7c0.6,1.1,1.3,2.3,2,3.4l4.9,8.2h15.9l7.4-12.7c-2.2-4.5-4.9-8.8-7.4-13.2h-16L134.5,155.1z M82.2,43.6H67
	l-7.6,13L67,69.9h15c2.6-4.4,5.1-8.7,7.7-13.2c-1.3-2.2-2.6-4.3-3.8-6.5S83.5,45.9,82.2,43.6z M182,70l7.7-13.3
	c-1.2-2.2-2.4-4.3-3.6-6.3c-1.3-2.3-2.6-4.5-4-6.8H167l-7.6,13l7.7,13.4H182z M117.1,100l-7.7,13c2.6,4.5,5.1,9,7.6,13.4h15.1
	c2.5-4.3,5-8.8,7.6-13.1c-0.5-1.3-1.1-2.5-1.8-3.7c-2.1-3.1-3.9-6.3-5.6-9.6L117.1,100z M59.4,113l7.6,13.4h15
	c2.5-4.4,5.1-8.7,7.7-13.2l-2.3-4.1c-1.7-3-3.5-6.1-5.2-9.1H67L59.4,113z M117,43.5c-2.6,4.3-5.1,8.7-7.7,13l7.6,13.4h14.9
	c2.8-4.3,5.3-8.8,7.8-13.3c-1.2-2.2-2.3-4.2-3.5-6.2c-1.3-2.3-2.7-4.5-4-6.9H117z M159.4,113l7.6,13.4h15l7.7-13.2
	c-0.8-1.4-1.5-2.8-2.3-4.1l-5.2-9.1H167L159.4,113z M17.1,100l-7.7,13l7.7,13.5H32c2.7-4.2,5.1-8.8,7.7-13.3
	c-1.2-2.1-2.3-4.2-3.6-6.3c-1.4-2.2-2.7-4.5-3.8-6.8H17.1z M17.1,43.5l-7.7,13L17,69.9h15l7.7-13.2c-1.2-2.2-2.4-4.3-3.6-6.3
	c-1.3-2.3-2.7-4.5-4-6.9H17.1z M32.3,154.5c0.1-0.3,0.2-0.6,0.4-0.9c1.7-2.9,3.2-5.9,5.1-8.6c0.7-1.2,1.3-2.4,1.8-3.7l-7.4-12.7
	H16.8l-7.3,12.9l7.6,13L32.3,154.5z M132.3,154.5c0.4-1,0.8-2,1.4-2.9c1.6-2.3,2.8-4.9,4.3-7.2c0.6-1,1.1-2.1,1.6-3.1
	c-2.6-4.4-5-8.5-7.4-12.7h-15.5c-2.5,4.4-4.9,8.6-7.3,12.9l7.6,13H132.3z M39.6,28.8c-0.1-0.5-0.2-0.9-0.4-1.3
	c-2.6-3.8-4.6-8-6.8-11.9H16.8L9.5,28.5l7.5,13h15.1C34.6,37.2,37,33.2,39.6,28.8z M109.5,28.5l7.5,13h15.1c1.1-1.5,2-3.1,2.8-4.7
	c1.1-2.4,2.7-4.5,4-6.8c0.5-0.6,0.6-1.4,0.3-2.1l-7-12.2h-15.5L109.5,28.5z M189.6,84.7c-2.5-4.3-5-8.4-7.2-12.7h-15.6l-7.3,13
	l7.6,12.9h15.3c0.1-0.3,0.2-0.6,0.4-0.9c1.7-2.9,3.2-5.9,5.1-8.6C188.5,87.2,189.1,86,189.6,84.7z M32.3,98c0.5-1.1,0.9-2,1.4-2.9
	c1.4-2.5,3-4.9,4.4-7.4c0.6-1,1.1-2,1.5-2.8l-7.3-12.7H16.8L9.4,85l7.6,13H32.3z M59.4,85c2.6,4.4,5.1,8.7,7.6,13h15.3
	c2.1-4.7,5.4-8.8,7.3-13.3c-2.6-4.3-5-8.4-7.2-12.7H66.8L59.4,85z M116.8,72l-7.4,13l7.6,13h15.2c2.2-4.7,5.4-8.8,7.3-13.2L132.3,72
	H116.8z M82.3,41.5c2.2-4.8,5.4-8.8,7.3-13.2l-7.3-12.7H66.8l-7.3,12.9l7.6,13L82.3,41.5z M182.2,15.6h-15.5l-7.3,12.9l7.5,12.9
	h15.3c2.1-4.7,5.3-8.7,7.2-13.1C187.1,23.9,184.7,19.8,182.2,15.6L182.2,15.6z M82.3,154.4c2.3-4.6,5.2-8.8,7.3-13.2
	c-2.6-4.5-5-8.6-7.4-12.8H66.8l-7.4,12.9c2.5,4.4,5,8.7,7.5,13L82.3,154.4z M182.2,128.6h-15.4c-2.5,4.4-4.9,8.6-7.3,12.9l7.5,13
	h15.3c2.3-4.6,5.2-8.8,7.3-13.1L182.2,128.6z"/>
</svg>
