<?xml version="1.0" encoding="UTF-8" standalone="no"?>
<!-- Generator: Adobe Illustrator 21.0.2, SVG Export Plug-In . SVG Version: 6.00 Build 0)  -->

<svg
   xmlns:dc="http://purl.org/dc/elements/1.1/"
   xmlns:cc="http://creativecommons.org/ns#"
   xmlns:rdf="http://www.w3.org/1999/02/22-rdf-syntax-ns#"
   xmlns:svg="http://www.w3.org/2000/svg"
   xmlns="http://www.w3.org/2000/svg"
   xmlns:sodipodi="http://sodipodi.sourceforge.net/DTD/sodipodi-0.dtd"
   xmlns:inkscape="http://www.inkscape.org/namespaces/inkscape"
   version="1.1"
   id="new"
   x="0px"
   y="0px"
   viewBox="0 0 177.8 177.8"
   xml:space="preserve"
   inkscape:version="0.91 r13725"
   sodipodi:docname="Mapbox_Logo.svg"
   width="177.8"
   height="177.8" xmlns:xsi="http://www.w3.org/2001/XMLSchema-instance" xsi:schemaLocation="http://purl.org/dc/elements/1.1/ "><metadata
     id="metadata23"><rdf:RDF><cc:Work
         rdf:about=""><dc:format>image/svg+xml</dc:format><dc:type
           rdf:resource="http://purl.org/dc/dcmitype/StillImage" /><dc:title>Mapbox</dc:title></cc:Work></rdf:RDF></metadata><defs
     id="defs21" /><sodipodi:namedview
     pagecolor="#ffffff"
     bordercolor="#666666"
     borderopacity="1"
     objecttolerance="10"
     gridtolerance="10"
     guidetolerance="10"
     inkscape:pageopacity="0"
     inkscape:pageshadow="2"
     inkscape:window-width="2560"
     inkscape:window-height="1377"
     id="namedview19"
     showgrid="false"
     inkscape:zoom="4.1153615"
     inkscape:cx="76.329678"
     inkscape:cy="103.68625"
     inkscape:window-x="-8"
     inkscape:window-y="-8"
     inkscape:window-maximized="1"
     inkscape:current-layer="new"
     fit-margin-top="0"
     fit-margin-left="0"
     fit-margin-right="0"
     fit-margin-bottom="0" /><style
     type="text/css"
     id="style3">
	.st0{fill:#4264FB;}
</style><title
     id="title5">Mapbox</title><g
     id="g7"
     transform="translate(-5,-1.1)"
     style="fill:#292b2c;fill-opacity:1"><g
       id="g9"
       style="fill:#292b2c;fill-opacity:1" /><g
       id="g13"
       style="fill:#292b2c;fill-opacity:1"><path
         class="st0"
         d="M 93.9,1.1 C 44.8,1.1 5,40.9 5,90 c 0,49.1 39.8,88.9 88.9,88.9 49.1,0 88.9,-39.8 88.9,-88.9 C 182.8,40.9 143,1.1 93.9,1.1 Z m 42.2,110.7 c -30.4,30.4 -84.7,20.7 -84.7,20.7 0,0 -9.8,-54.2 20.7,-84.7 16.9,-16.9 44.9,-16.2 62.6,1.4 17.7,17.6 18.3,45.7 1.4,62.6 l 0,0 z"
         id="path15"
         inkscape:connector-curvature="0"
         style="fill:#292b2c;fill-opacity:1" /><polygon
         class="st0"
         points="95.4,88.5 104.1,106.4 112.8,88.5 130.7,79.8 112.8,71.1 104.1,53.2 95.4,71.1 77.5,79.8 "
         id="polygon17"
         style="fill:#292b2c;fill-opacity:1" /></g></g></svg>